<mxfile><diagram id="zB1FqW1F1IhiGGZexuz7" name="Page-1"><mxGraphModel dx="1685" dy="1457" grid="1" gridSize="10" guides="1" tooltips="1" connect="1" arrows="1" fold="1" page="1" pageScale="1" pageWidth="850" pageHeight="1100" math="0" shadow="0"><root><mxCell id="0"/><mxCell id="1" parent="0"/><mxCell id="9" style="edgeStyle=none;html=1;exitX=0.5;exitY=0;exitDx=0;exitDy=0;entryX=0.5;entryY=1;entryDx=0;entryDy=0;endArrow=none;endFill=0;" edge="1" parent="1" source="3" target="8"><mxGeometry relative="1" as="geometry"/></mxCell><mxCell id="11" style="edgeStyle=none;html=1;exitX=0.75;exitY=1;exitDx=0;exitDy=0;entryX=0.5;entryY=0;entryDx=0;entryDy=0;endArrow=none;endFill=0;" edge="1" parent="1" source="3" target="10"><mxGeometry relative="1" as="geometry"/></mxCell><mxCell id="wfl9mlkw2SznRGfdiI2x-12" style="edgeStyle=none;html=1;exitX=0.5;exitY=1;exitDx=0;exitDy=0;entryX=0.5;entryY=0;entryDx=0;entryDy=0;endArrow=none;endFill=0;" edge="1" parent="1" source="3" target="wfl9mlkw2SznRGfdiI2x-11"><mxGeometry relative="1" as="geometry"/></mxCell><mxCell id="wfl9mlkw2SznRGfdiI2x-14" style="edgeStyle=none;html=1;exitX=0.75;exitY=0;exitDx=0;exitDy=0;entryX=0.5;entryY=1;entryDx=0;entryDy=0;endArrow=none;endFill=0;" edge="1" parent="1" source="3" target="wfl9mlkw2SznRGfdiI2x-13"><mxGeometry relative="1" as="geometry"/></mxCell><mxCell id="wfl9mlkw2SznRGfdiI2x-23" style="edgeStyle=none;html=1;exitX=0.25;exitY=1;exitDx=0;exitDy=0;entryX=0.5;entryY=0;entryDx=0;entryDy=0;endArrow=none;endFill=0;" edge="1" parent="1" source="3" target="wfl9mlkw2SznRGfdiI2x-21"><mxGeometry relative="1" as="geometry"/></mxCell><mxCell id="3" value="کتاب" style="whiteSpace=wrap;html=1;align=center;fillColor=#fa6800;strokeColor=#FFFF33;strokeWidth=2;" parent="1" vertex="1"><mxGeometry x="-40" y="120" width="100" height="40" as="geometry"/></mxCell><mxCell id="wfl9mlkw2SznRGfdiI2x-59" style="edgeStyle=none;html=1;exitX=0.75;exitY=0;exitDx=0;exitDy=0;entryX=0.5;entryY=1;entryDx=0;entryDy=0;endArrow=none;endFill=0;" edge="1" parent="1" source="4" target="wfl9mlkw2SznRGfdiI2x-58"><mxGeometry relative="1" as="geometry"/></mxCell><mxCell id="wfl9mlkw2SznRGfdiI2x-61" style="edgeStyle=none;html=1;exitX=0.75;exitY=1;exitDx=0;exitDy=0;entryX=0.5;entryY=0;entryDx=0;entryDy=0;endArrow=none;endFill=0;" edge="1" parent="1" source="4" target="wfl9mlkw2SznRGfdiI2x-60"><mxGeometry relative="1" as="geometry"/></mxCell><mxCell id="wfl9mlkw2SznRGfdiI2x-63" style="edgeStyle=none;html=1;exitX=1;exitY=0.5;exitDx=0;exitDy=0;entryX=0.5;entryY=0;entryDx=0;entryDy=0;endArrow=none;endFill=0;" edge="1" parent="1" source="4" target="wfl9mlkw2SznRGfdiI2x-62"><mxGeometry relative="1" as="geometry"/></mxCell><mxCell id="wfl9mlkw2SznRGfdiI2x-65" style="edgeStyle=none;html=1;exitX=0.5;exitY=1;exitDx=0;exitDy=0;entryX=0.5;entryY=0;entryDx=0;entryDy=0;endArrow=none;endFill=0;" edge="1" parent="1" source="4" target="wfl9mlkw2SznRGfdiI2x-64"><mxGeometry relative="1" as="geometry"/></mxCell><mxCell id="wfl9mlkw2SznRGfdiI2x-67" style="edgeStyle=none;html=1;exitX=0.25;exitY=0;exitDx=0;exitDy=0;entryX=0.5;entryY=1;entryDx=0;entryDy=0;endArrow=none;endFill=0;" edge="1" parent="1" source="4" target="wfl9mlkw2SznRGfdiI2x-66"><mxGeometry relative="1" as="geometry"/></mxCell><mxCell id="wfl9mlkw2SznRGfdiI2x-114" style="edgeStyle=none;html=1;exitX=0;exitY=1;exitDx=0;exitDy=0;strokeColor=default;startArrow=none;startFill=0;endArrow=none;endFill=0;entryX=1;entryY=0.5;entryDx=0;entryDy=0;" edge="1" parent="1" source="4" target="wfl9mlkw2SznRGfdiI2x-118"><mxGeometry relative="1" as="geometry"><mxPoint x="570" y="400" as="targetPoint"/><Array as="points"><mxPoint x="570" y="400"/></Array></mxGeometry></mxCell><mxCell id="4" value="عضو" style="whiteSpace=wrap;html=1;align=center;fillColor=#fa6800;strokeColor=#FFFF33;strokeWidth=2;" parent="1" vertex="1"><mxGeometry x="570" y="120" width="100" height="40" as="geometry"/></mxCell><mxCell id="7" style="edgeStyle=none;html=1;exitX=0;exitY=0.5;exitDx=0;exitDy=0;entryX=1;entryY=0.5;entryDx=0;entryDy=0;startArrow=none;startFill=0;strokeColor=default;endArrow=none;endFill=0;" edge="1" parent="1" source="5" target="3"><mxGeometry relative="1" as="geometry"><mxPoint x="130" y="132.5" as="sourcePoint"/></mxGeometry></mxCell><mxCell id="wfl9mlkw2SznRGfdiI2x-29" style="edgeStyle=none;html=1;exitX=1;exitY=1;exitDx=0;exitDy=0;entryX=0.313;entryY=0.054;entryDx=0;entryDy=0;entryPerimeter=0;startArrow=none;startFill=0;strokeColor=default;endArrow=none;endFill=0;" edge="1" parent="1" source="5" target="wfl9mlkw2SznRGfdiI2x-51"><mxGeometry relative="1" as="geometry"><mxPoint x="370" y="190" as="targetPoint"/><Array as="points"><mxPoint x="350" y="170"/></Array></mxGeometry></mxCell><mxCell id="wfl9mlkw2SznRGfdiI2x-33" style="edgeStyle=none;html=1;exitX=0.5;exitY=1;exitDx=0;exitDy=0;entryX=0.5;entryY=0;entryDx=0;entryDy=0;startArrow=none;startFill=0;strokeColor=default;endArrow=none;endFill=0;" edge="1" parent="1"><mxGeometry relative="1" as="geometry"><mxPoint x="275" y="160" as="sourcePoint"/><mxPoint x="265" y="229.99999999999977" as="targetPoint"/></mxGeometry></mxCell><mxCell id="wfl9mlkw2SznRGfdiI2x-78" style="edgeStyle=none;html=1;exitX=1;exitY=0.5;exitDx=0;exitDy=0;entryX=0;entryY=0.5;entryDx=0;entryDy=0;strokeColor=default;startArrow=none;startFill=0;endArrow=none;endFill=0;" edge="1" parent="1" source="5" target="4"><mxGeometry relative="1" as="geometry"><Array as="points"><mxPoint x="500" y="140"/></Array></mxGeometry></mxCell><mxCell id="5" value="امانت" style="shape=rhombus;perimeter=rhombusPerimeter;whiteSpace=wrap;html=1;align=center;fillColor=#e51400;strokeColor=#FFB366;strokeWidth=2;" parent="1" vertex="1"><mxGeometry x="240" y="115" width="100" height="50" as="geometry"/></mxCell><mxCell id="8" value="حداکثر زمان مجاز" style="ellipse;whiteSpace=wrap;html=1;align=center;rotation=-20;fillColor=#0050ef;strokeWidth=2;strokeColor=#33FFFF;" vertex="1" parent="1"><mxGeometry x="-90" y="12.5" width="100" height="40" as="geometry"/></mxCell><mxCell id="10" value="شابک" style="ellipse;whiteSpace=wrap;html=1;align=center;fontStyle=4;fillColor=#0050ef;strokeWidth=2;strokeColor=#33FFFF;" vertex="1" parent="1"><mxGeometry x="30" y="222.5" width="100" height="40" as="geometry"/></mxCell><mxCell id="wfl9mlkw2SznRGfdiI2x-11" value="نویسندگان" style="ellipse;shape=doubleEllipse;margin=3;whiteSpace=wrap;html=1;align=center;fillColor=#0050ef;strokeWidth=2;strokeColor=#33FFFF;" vertex="1" parent="1"><mxGeometry x="-60" y="252.5" width="100" height="40" as="geometry"/></mxCell><mxCell id="wfl9mlkw2SznRGfdiI2x-16" value="" style="edgeStyle=none;html=1;endArrow=none;endFill=0;" edge="1" parent="1" source="wfl9mlkw2SznRGfdiI2x-13"><mxGeometry relative="1" as="geometry"><mxPoint x="60" y="-10" as="targetPoint"/></mxGeometry></mxCell><mxCell id="wfl9mlkw2SznRGfdiI2x-19" style="edgeStyle=none;html=1;exitX=0.5;exitY=0;exitDx=0;exitDy=0;entryX=0.5;entryY=1;entryDx=0;entryDy=0;endArrow=none;endFill=0;" edge="1" parent="1" source="wfl9mlkw2SznRGfdiI2x-13" target="wfl9mlkw2SznRGfdiI2x-17"><mxGeometry relative="1" as="geometry"/></mxCell><mxCell id="wfl9mlkw2SznRGfdiI2x-20" style="edgeStyle=none;html=1;exitX=1;exitY=0;exitDx=0;exitDy=0;entryX=0.5;entryY=1;entryDx=0;entryDy=0;endArrow=none;endFill=0;" edge="1" parent="1" source="wfl9mlkw2SznRGfdiI2x-13" target="wfl9mlkw2SznRGfdiI2x-18"><mxGeometry relative="1" as="geometry"/></mxCell><mxCell id="wfl9mlkw2SznRGfdiI2x-13" value="تاریخ نشر" style="ellipse;whiteSpace=wrap;html=1;align=center;rotation=30;fillColor=#0050ef;strokeWidth=2;strokeColor=#33FFFF;" vertex="1" parent="1"><mxGeometry x="30" y="42.5" width="80" height="40" as="geometry"/></mxCell><mxCell id="wfl9mlkw2SznRGfdiI2x-15" value="سال" style="ellipse;whiteSpace=wrap;html=1;fillColor=#0050ef;strokeWidth=2;strokeColor=#33FFFF;" vertex="1" parent="1"><mxGeometry x="40" y="-37.5" width="48.66" height="25" as="geometry"/></mxCell><mxCell id="wfl9mlkw2SznRGfdiI2x-17" value="ماه" style="ellipse;whiteSpace=wrap;html=1;rotation=30;fillColor=#0050ef;strokeWidth=2;strokeColor=#33FFFF;" vertex="1" parent="1"><mxGeometry x="88.66" y="-12.5" width="48.66" height="25" as="geometry"/></mxCell><mxCell id="wfl9mlkw2SznRGfdiI2x-18" value="روز" style="ellipse;whiteSpace=wrap;html=1;rotation=60;fillColor=#0050ef;strokeWidth=2;strokeColor=#33FFFF;" vertex="1" parent="1"><mxGeometry x="130" y="27.5" width="48.66" height="25" as="geometry"/></mxCell><mxCell id="wfl9mlkw2SznRGfdiI2x-21" value="نام کتاب" style="ellipse;whiteSpace=wrap;html=1;align=center;rotation=30;fillColor=#0050ef;strokeWidth=2;strokeColor=#33FFFF;" vertex="1" parent="1"><mxGeometry x="-120" y="192.5" width="90" height="40" as="geometry"/></mxCell><mxCell id="wfl9mlkw2SznRGfdiI2x-36" value="" style="edgeStyle=none;html=1;endArrow=none;endFill=0;" edge="1" parent="1" source="wfl9mlkw2SznRGfdiI2x-24" target="wfl9mlkw2SznRGfdiI2x-35"><mxGeometry relative="1" as="geometry"/></mxCell><mxCell id="wfl9mlkw2SznRGfdiI2x-53" style="edgeStyle=none;html=1;exitX=0.5;exitY=1;exitDx=0;exitDy=0;entryX=0.5;entryY=0;entryDx=0;entryDy=0;endArrow=none;endFill=0;" edge="1" parent="1" source="wfl9mlkw2SznRGfdiI2x-24" target="wfl9mlkw2SznRGfdiI2x-37"><mxGeometry relative="1" as="geometry"/></mxCell><mxCell id="wfl9mlkw2SznRGfdiI2x-54" style="edgeStyle=none;html=1;exitX=1;exitY=1;exitDx=0;exitDy=0;entryX=0.5;entryY=0;entryDx=0;entryDy=0;endArrow=none;endFill=0;" edge="1" parent="1" source="wfl9mlkw2SznRGfdiI2x-24" target="wfl9mlkw2SznRGfdiI2x-38"><mxGeometry relative="1" as="geometry"/></mxCell><mxCell id="wfl9mlkw2SznRGfdiI2x-24" value="تاریخ تحویل" style="ellipse;whiteSpace=wrap;html=1;align=center;rotation=30;fillColor=#0050ef;strokeWidth=2;strokeColor=#33FFFF;" vertex="1" parent="1"><mxGeometry x="340" y="240.00000000000003" width="70" height="35.33" as="geometry"/></mxCell><mxCell id="wfl9mlkw2SznRGfdiI2x-45" style="edgeStyle=none;html=1;exitX=0;exitY=1;exitDx=0;exitDy=0;entryX=0.5;entryY=0;entryDx=0;entryDy=0;endArrow=none;endFill=0;" edge="1" parent="1" source="wfl9mlkw2SznRGfdiI2x-25" target="wfl9mlkw2SznRGfdiI2x-42"><mxGeometry relative="1" as="geometry"/></mxCell><mxCell id="wfl9mlkw2SznRGfdiI2x-46" style="edgeStyle=none;html=1;exitX=0.5;exitY=1;exitDx=0;exitDy=0;entryX=0.5;entryY=0;entryDx=0;entryDy=0;endArrow=none;endFill=0;" edge="1" parent="1" source="wfl9mlkw2SznRGfdiI2x-25" target="wfl9mlkw2SznRGfdiI2x-44"><mxGeometry relative="1" as="geometry"/></mxCell><mxCell id="wfl9mlkw2SznRGfdiI2x-47" style="edgeStyle=none;html=1;exitX=1;exitY=1;exitDx=0;exitDy=0;entryX=0;entryY=0;entryDx=0;entryDy=0;endArrow=none;endFill=0;" edge="1" parent="1" source="wfl9mlkw2SznRGfdiI2x-25" target="wfl9mlkw2SznRGfdiI2x-43"><mxGeometry relative="1" as="geometry"/></mxCell><mxCell id="wfl9mlkw2SznRGfdiI2x-25" value="تاریخ برگشت" style="ellipse;whiteSpace=wrap;html=1;align=center;rotation=-25;fillColor=#0050ef;strokeWidth=2;strokeColor=#33FFFF;" vertex="1" parent="1"><mxGeometry x="410" y="240" width="70" height="30" as="geometry"/></mxCell><mxCell id="wfl9mlkw2SznRGfdiI2x-35" value="سال" style="ellipse;whiteSpace=wrap;html=1;rotation=60;fillColor=#0050ef;strokeWidth=2;strokeColor=#33FFFF;" vertex="1" parent="1"><mxGeometry x="305" y="262.5" width="35" height="22.5" as="geometry"/></mxCell><mxCell id="wfl9mlkw2SznRGfdiI2x-37" value="ماه" style="ellipse;whiteSpace=wrap;html=1;rotation=30;fillColor=#0050ef;strokeWidth=2;strokeColor=#33FFFF;" vertex="1" parent="1"><mxGeometry x="330" y="297.5" width="35" height="22.5" as="geometry"/></mxCell><mxCell id="wfl9mlkw2SznRGfdiI2x-38" value="روز" style="ellipse;whiteSpace=wrap;html=1;rotation=15;fillColor=#0050ef;strokeWidth=2;strokeColor=#33FFFF;" vertex="1" parent="1"><mxGeometry x="365" y="320" width="35" height="22.5" as="geometry"/></mxCell><mxCell id="wfl9mlkw2SznRGfdiI2x-42" value="سال" style="ellipse;whiteSpace=wrap;html=1;fillColor=#0050ef;strokeWidth=2;strokeColor=#33FFFF;" vertex="1" parent="1"><mxGeometry x="420" y="310" width="35" height="22.5" as="geometry"/></mxCell><mxCell id="wfl9mlkw2SznRGfdiI2x-43" value="روز" style="ellipse;whiteSpace=wrap;html=1;rotation=-20;fillColor=#0050ef;strokeWidth=2;strokeColor=#33FFFF;" vertex="1" parent="1"><mxGeometry x="495" y="275" width="35" height="22.5" as="geometry"/></mxCell><mxCell id="wfl9mlkw2SznRGfdiI2x-44" value="ماه" style="ellipse;whiteSpace=wrap;html=1;rotation=-15;fillColor=#0050ef;strokeWidth=2;strokeColor=#33FFFF;" vertex="1" parent="1"><mxGeometry x="460" y="297.5" width="35" height="22.5" as="geometry"/></mxCell><mxCell id="wfl9mlkw2SznRGfdiI2x-48" value="مدت" style="ellipse;whiteSpace=wrap;html=1;align=center;dashed=1;rotation=15;fillColor=#0050ef;strokeWidth=2;strokeColor=#33FFFF;" vertex="1" parent="1"><mxGeometry x="230" y="230" width="70" height="30" as="geometry"/></mxCell><mxCell id="wfl9mlkw2SznRGfdiI2x-56" style="edgeStyle=none;html=1;exitX=0.5;exitY=1;exitDx=0;exitDy=0;endArrow=none;endFill=0;" edge="1" parent="1" source="wfl9mlkw2SznRGfdiI2x-51" target="wfl9mlkw2SznRGfdiI2x-24"><mxGeometry relative="1" as="geometry"/></mxCell><mxCell id="wfl9mlkw2SznRGfdiI2x-57" style="edgeStyle=none;html=1;exitX=1;exitY=1;exitDx=0;exitDy=0;entryX=0.5;entryY=0;entryDx=0;entryDy=0;endArrow=none;endFill=0;" edge="1" parent="1" source="wfl9mlkw2SznRGfdiI2x-51" target="wfl9mlkw2SznRGfdiI2x-25"><mxGeometry relative="1" as="geometry"/></mxCell><mxCell id="wfl9mlkw2SznRGfdiI2x-51" value="از تاریخ_تا تاریخ" style="ellipse;shape=doubleEllipse;margin=3;whiteSpace=wrap;html=1;align=center;fillColor=#0050ef;strokeWidth=2;strokeColor=#33FFFF;" vertex="1" parent="1"><mxGeometry x="350" y="182.5" width="80" height="40" as="geometry"/></mxCell><mxCell id="wfl9mlkw2SznRGfdiI2x-58" value="نام ونام خانوادگی" style="ellipse;shape=doubleEllipse;margin=3;whiteSpace=wrap;html=1;align=center;rotation=15;fillColor=#0050ef;strokeWidth=2;strokeColor=#33FFFF;" vertex="1" parent="1"><mxGeometry x="630" y="30" width="100" height="40" as="geometry"/></mxCell><mxCell id="wfl9mlkw2SznRGfdiI2x-60" value="کد ملی" style="ellipse;whiteSpace=wrap;html=1;align=center;fontStyle=4;rotation=-30;fillColor=#0050ef;strokeWidth=2;strokeColor=#33FFFF;" vertex="1" parent="1"><mxGeometry x="653.21" y="194.5" width="80" height="32.5" as="geometry"/></mxCell><mxCell id="wfl9mlkw2SznRGfdiI2x-62" value="تلفن" style="ellipse;shape=doubleEllipse;margin=3;whiteSpace=wrap;html=1;align=center;rotation=-90;fillColor=#0050ef;strokeWidth=2;strokeColor=#33FFFF;" vertex="1" parent="1"><mxGeometry x="700" y="125" width="70" height="30" as="geometry"/></mxCell><mxCell id="wfl9mlkw2SznRGfdiI2x-64" value="سن" style="ellipse;whiteSpace=wrap;html=1;align=center;dashed=1;rotation=-15;fillColor=#0050ef;strokeWidth=2;strokeColor=#33FFFF;" vertex="1" parent="1"><mxGeometry x="590" y="222.5" width="60" height="30" as="geometry"/></mxCell><mxCell id="wfl9mlkw2SznRGfdiI2x-71" style="edgeStyle=none;html=1;exitX=0.5;exitY=0;exitDx=0;exitDy=0;entryX=0.5;entryY=1;entryDx=0;entryDy=0;endArrow=none;endFill=0;" edge="1" parent="1" source="wfl9mlkw2SznRGfdiI2x-66" target="wfl9mlkw2SznRGfdiI2x-69"><mxGeometry relative="1" as="geometry"/></mxCell><mxCell id="wfl9mlkw2SznRGfdiI2x-72" style="edgeStyle=none;html=1;exitX=1;exitY=0;exitDx=0;exitDy=0;entryX=0.5;entryY=1;entryDx=0;entryDy=0;endArrow=none;endFill=0;" edge="1" parent="1" source="wfl9mlkw2SznRGfdiI2x-66" target="wfl9mlkw2SznRGfdiI2x-70"><mxGeometry relative="1" as="geometry"/></mxCell><mxCell id="wfl9mlkw2SznRGfdiI2x-73" style="edgeStyle=none;html=1;exitX=0;exitY=0;exitDx=0;exitDy=0;entryX=0.62;entryY=1.067;entryDx=0;entryDy=0;entryPerimeter=0;endArrow=none;endFill=0;" edge="1" parent="1" source="wfl9mlkw2SznRGfdiI2x-66" target="wfl9mlkw2SznRGfdiI2x-68"><mxGeometry relative="1" as="geometry"/></mxCell><mxCell id="wfl9mlkw2SznRGfdiI2x-66" value="تاریخ تولد" style="ellipse;whiteSpace=wrap;html=1;align=center;fillColor=#0050ef;strokeWidth=2;strokeColor=#33FFFF;" vertex="1" parent="1"><mxGeometry x="530" y="30" width="80" height="30" as="geometry"/></mxCell><mxCell id="wfl9mlkw2SznRGfdiI2x-68" value="سال" style="ellipse;whiteSpace=wrap;html=1;align=center;fillColor=#0050ef;strokeWidth=2;strokeColor=#33FFFF;" vertex="1" parent="1"><mxGeometry x="500" y="-20" width="50" height="30" as="geometry"/></mxCell><mxCell id="wfl9mlkw2SznRGfdiI2x-69" value="ماه" style="ellipse;whiteSpace=wrap;html=1;align=center;fillColor=#0050ef;strokeWidth=2;strokeColor=#33FFFF;" vertex="1" parent="1"><mxGeometry x="540" y="-50" width="50" height="30" as="geometry"/></mxCell><mxCell id="wfl9mlkw2SznRGfdiI2x-70" value="روز" style="ellipse;whiteSpace=wrap;html=1;align=center;fillColor=#0050ef;strokeWidth=2;strokeColor=#33FFFF;" vertex="1" parent="1"><mxGeometry x="580" y="-20" width="50" height="30" as="geometry"/></mxCell><mxCell id="wfl9mlkw2SznRGfdiI2x-74" value="M" style="text;html=1;align=center;verticalAlign=middle;resizable=0;points=[];autosize=1;strokeColor=none;fillColor=none;" vertex="1" parent="1"><mxGeometry x="65" y="115" width="30" height="30" as="geometry"/></mxCell><mxCell id="wfl9mlkw2SznRGfdiI2x-75" value="N" style="text;html=1;align=center;verticalAlign=middle;resizable=0;points=[];autosize=1;strokeColor=none;fillColor=none;" vertex="1" parent="1"><mxGeometry x="530" y="115" width="30" height="30" as="geometry"/></mxCell><mxCell id="wfl9mlkw2SznRGfdiI2x-91" style="edgeStyle=none;html=1;exitX=0.75;exitY=1;exitDx=0;exitDy=0;entryX=0.5;entryY=0;entryDx=0;entryDy=0;strokeColor=default;startArrow=none;startFill=0;endArrow=none;endFill=0;" edge="1" parent="1" source="wfl9mlkw2SznRGfdiI2x-83" target="wfl9mlkw2SznRGfdiI2x-90"><mxGeometry relative="1" as="geometry"/></mxCell><mxCell id="wfl9mlkw2SznRGfdiI2x-94" style="edgeStyle=none;html=1;exitX=0.5;exitY=1;exitDx=0;exitDy=0;entryX=0.5;entryY=0;entryDx=0;entryDy=0;strokeColor=default;startArrow=none;startFill=0;endArrow=none;endFill=0;" edge="1" parent="1" source="wfl9mlkw2SznRGfdiI2x-83" target="wfl9mlkw2SznRGfdiI2x-93"><mxGeometry relative="1" as="geometry"/></mxCell><mxCell id="wfl9mlkw2SznRGfdiI2x-97" style="edgeStyle=none;html=1;exitX=0.25;exitY=1;exitDx=0;exitDy=0;entryX=0.5;entryY=0;entryDx=0;entryDy=0;strokeColor=default;startArrow=none;startFill=0;endArrow=none;endFill=0;" edge="1" parent="1" source="wfl9mlkw2SznRGfdiI2x-83" target="wfl9mlkw2SznRGfdiI2x-96"><mxGeometry relative="1" as="geometry"/></mxCell><mxCell id="wfl9mlkw2SznRGfdiI2x-99" style="edgeStyle=none;html=1;exitX=0;exitY=0.75;exitDx=0;exitDy=0;entryX=0.5;entryY=0;entryDx=0;entryDy=0;strokeColor=default;startArrow=none;startFill=0;endArrow=none;endFill=0;" edge="1" parent="1" source="wfl9mlkw2SznRGfdiI2x-83" target="wfl9mlkw2SznRGfdiI2x-98"><mxGeometry relative="1" as="geometry"/></mxCell><mxCell id="wfl9mlkw2SznRGfdiI2x-115" style="edgeStyle=none;html=1;exitX=0;exitY=0.25;exitDx=0;exitDy=0;strokeColor=default;startArrow=none;startFill=0;endArrow=none;endFill=0;" edge="1" parent="1" source="wfl9mlkw2SznRGfdiI2x-83"><mxGeometry relative="1" as="geometry"><mxPoint x="-30" y="400" as="targetPoint"/><Array as="points"><mxPoint x="-630" y="130"/><mxPoint x="-630" y="400"/><mxPoint x="-30" y="400"/><mxPoint y="400"/></Array></mxGeometry></mxCell><mxCell id="wfl9mlkw2SznRGfdiI2x-83" value="کتابخانه" style="whiteSpace=wrap;html=1;align=center;strokeColor=#FFFF33;strokeWidth=2;fillColor=#FF8000;fontColor=#000000;" vertex="1" parent="1"><mxGeometry x="-440" y="120" width="100" height="40" as="geometry"/></mxCell><mxCell id="wfl9mlkw2SznRGfdiI2x-85" style="edgeStyle=none;html=1;exitX=1;exitY=0.5;exitDx=0;exitDy=0;entryX=0;entryY=0.5;entryDx=0;entryDy=0;strokeColor=default;startArrow=none;startFill=0;endArrow=none;endFill=0;" edge="1" parent="1" source="wfl9mlkw2SznRGfdiI2x-84" target="3"><mxGeometry relative="1" as="geometry"/></mxCell><mxCell id="wfl9mlkw2SznRGfdiI2x-86" style="edgeStyle=none;html=1;exitX=0;exitY=0.5;exitDx=0;exitDy=0;strokeColor=default;startArrow=none;startFill=0;endArrow=none;endFill=0;" edge="1" parent="1" source="wfl9mlkw2SznRGfdiI2x-84" target="wfl9mlkw2SznRGfdiI2x-83"><mxGeometry relative="1" as="geometry"/></mxCell><mxCell id="wfl9mlkw2SznRGfdiI2x-113" style="edgeStyle=none;html=1;exitX=0;exitY=0;exitDx=0;exitDy=0;entryX=0.5;entryY=1;entryDx=0;entryDy=0;strokeColor=default;startArrow=none;startFill=0;endArrow=none;endFill=0;" edge="1" parent="1" source="wfl9mlkw2SznRGfdiI2x-84" target="wfl9mlkw2SznRGfdiI2x-112"><mxGeometry relative="1" as="geometry"/></mxCell><mxCell id="wfl9mlkw2SznRGfdiI2x-84" value="وجود داشتن" style="shape=rhombus;perimeter=rhombusPerimeter;whiteSpace=wrap;html=1;align=center;strokeColor=#FF9933;strokeWidth=2;fillColor=#FF0000;fontColor=#ffffff;" vertex="1" parent="1"><mxGeometry x="-270" y="111.25" width="100" height="57.5" as="geometry"/></mxCell><mxCell id="wfl9mlkw2SznRGfdiI2x-87" value="M" style="text;html=1;align=center;verticalAlign=middle;resizable=0;points=[];autosize=1;strokeColor=none;fillColor=none;" vertex="1" parent="1"><mxGeometry x="-335" y="115" width="30" height="30" as="geometry"/></mxCell><mxCell id="wfl9mlkw2SznRGfdiI2x-88" value="N" style="text;html=1;align=center;verticalAlign=middle;resizable=0;points=[];autosize=1;strokeColor=none;fillColor=none;" vertex="1" parent="1"><mxGeometry x="-75" y="115" width="30" height="30" as="geometry"/></mxCell><mxCell id="wfl9mlkw2SznRGfdiI2x-90" value="نام کتابخانه" style="ellipse;whiteSpace=wrap;html=1;align=center;rotation=-15;fillColor=#0050ef;strokeWidth=2;strokeColor=#33FFFF;" vertex="1" parent="1"><mxGeometry x="-365" y="217.5" width="90" height="40" as="geometry"/></mxCell><mxCell id="wfl9mlkw2SznRGfdiI2x-100" style="edgeStyle=none;html=1;exitX=0;exitY=1;exitDx=0;exitDy=0;strokeColor=default;startArrow=none;startFill=0;endArrow=none;endFill=0;" edge="1" parent="1" source="wfl9mlkw2SznRGfdiI2x-93"><mxGeometry relative="1" as="geometry"><mxPoint x="-440" y="320.0000000000002" as="targetPoint"/></mxGeometry></mxCell><mxCell id="wfl9mlkw2SznRGfdiI2x-101" style="edgeStyle=none;html=1;exitX=0.5;exitY=1;exitDx=0;exitDy=0;strokeColor=default;startArrow=none;startFill=0;endArrow=none;endFill=0;" edge="1" parent="1" source="wfl9mlkw2SznRGfdiI2x-93"><mxGeometry relative="1" as="geometry"><mxPoint x="-395" y="320.0000000000002" as="targetPoint"/></mxGeometry></mxCell><mxCell id="wfl9mlkw2SznRGfdiI2x-102" style="edgeStyle=none;html=1;exitX=1;exitY=1;exitDx=0;exitDy=0;strokeColor=default;startArrow=none;startFill=0;endArrow=none;endFill=0;" edge="1" parent="1" source="wfl9mlkw2SznRGfdiI2x-93"><mxGeometry relative="1" as="geometry"><mxPoint x="-350" y="320.0000000000002" as="targetPoint"/></mxGeometry></mxCell><mxCell id="wfl9mlkw2SznRGfdiI2x-93" value="آدرس" style="ellipse;shape=doubleEllipse;margin=3;whiteSpace=wrap;html=1;align=center;fillColor=#0050ef;strokeWidth=2;strokeColor=#33FFFF;" vertex="1" parent="1"><mxGeometry x="-440" y="257.5" width="90" height="40" as="geometry"/></mxCell><mxCell id="wfl9mlkw2SznRGfdiI2x-95" value="نویسندگان" style="ellipse;shape=doubleEllipse;margin=3;whiteSpace=wrap;html=1;align=center;fillColor=#0050ef;strokeWidth=2;strokeColor=#33FFFF;" vertex="1" parent="1"><mxGeometry x="-60" y="252.5" width="100" height="40" as="geometry"/></mxCell><mxCell id="wfl9mlkw2SznRGfdiI2x-96" value="تلفن" style="ellipse;shape=doubleEllipse;margin=3;whiteSpace=wrap;html=1;align=center;fillColor=#0050ef;strokeWidth=2;strokeColor=#33FFFF;rotation=10;" vertex="1" parent="1"><mxGeometry x="-500" y="217.5" width="90" height="32.5" as="geometry"/></mxCell><mxCell id="wfl9mlkw2SznRGfdiI2x-98" value="تعداد اعضا" style="ellipse;whiteSpace=wrap;html=1;align=center;rotation=45;fillColor=#0050ef;strokeWidth=2;strokeColor=#33FFFF;" vertex="1" parent="1"><mxGeometry x="-548.54" y="155" width="80" height="40" as="geometry"/></mxCell><mxCell id="wfl9mlkw2SznRGfdiI2x-103" value="نام کتاب" style="ellipse;whiteSpace=wrap;html=1;align=center;rotation=30;fillColor=#0050ef;strokeWidth=2;strokeColor=#33FFFF;" vertex="1" parent="1"><mxGeometry x="-120" y="192.5" width="90" height="40" as="geometry"/></mxCell><mxCell id="wfl9mlkw2SznRGfdiI2x-104" value="شهر" style="ellipse;whiteSpace=wrap;html=1;align=center;rotation=-30;fillColor=#0050ef;strokeWidth=2;strokeColor=#33FFFF;" vertex="1" parent="1"><mxGeometry x="-365" y="320" width="36.16" height="26.92" as="geometry"/></mxCell><mxCell id="wfl9mlkw2SznRGfdiI2x-106" value="خیابان" style="ellipse;whiteSpace=wrap;html=1;align=center;rotation=15;fillColor=#0050ef;strokeWidth=2;strokeColor=#33FFFF;" vertex="1" parent="1"><mxGeometry x="-462" y="319.04" width="37.5" height="23.46" as="geometry"/></mxCell><mxCell id="wfl9mlkw2SznRGfdiI2x-108" value="کدپستی" style="ellipse;whiteSpace=wrap;html=1;align=center;fontStyle=4;fillColor=#0050ef;strokeWidth=2;strokeColor=#33FFFF;" vertex="1" parent="1"><mxGeometry x="-415" y="319.04" width="40" height="33.46" as="geometry"/></mxCell><mxCell id="wfl9mlkw2SznRGfdiI2x-109" value="شابک" style="ellipse;whiteSpace=wrap;html=1;align=center;fontStyle=4;fillColor=#0050ef;strokeWidth=2;strokeColor=#33FFFF;" vertex="1" parent="1"><mxGeometry x="30" y="222.5" width="100" height="40" as="geometry"/></mxCell><mxCell id="wfl9mlkw2SznRGfdiI2x-112" value="تعداد" style="ellipse;whiteSpace=wrap;html=1;align=center;rotation=-30;fillColor=#0050ef;strokeWidth=2;strokeColor=#33FFFF;" vertex="1" parent="1"><mxGeometry x="-305" y="70" width="70" height="34.21" as="geometry"/></mxCell><mxCell id="wfl9mlkw2SznRGfdiI2x-116" value="حداکثر زمان مجاز" style="ellipse;whiteSpace=wrap;html=1;align=center;rotation=-20;fillColor=#0050ef;strokeWidth=2;strokeColor=#33FFFF;" vertex="1" parent="1"><mxGeometry x="-90" y="12.5" width="100" height="40" as="geometry"/></mxCell><mxCell id="wfl9mlkw2SznRGfdiI2x-135" style="edgeStyle=none;html=1;exitX=0.5;exitY=1;exitDx=0;exitDy=0;entryX=0.5;entryY=0;entryDx=0;entryDy=0;strokeColor=default;startArrow=none;startFill=0;endArrow=none;endFill=0;" edge="1" parent="1" source="wfl9mlkw2SznRGfdiI2x-118" target="wfl9mlkw2SznRGfdiI2x-134"><mxGeometry relative="1" as="geometry"/></mxCell><mxCell id="wfl9mlkw2SznRGfdiI2x-118" value="عضویت" style="shape=rhombus;perimeter=rhombusPerimeter;whiteSpace=wrap;html=1;align=center;fillColor=#e51400;strokeColor=#FFB366;strokeWidth=2;" vertex="1" parent="1"><mxGeometry x="-5" y="380" width="100" height="40" as="geometry"/></mxCell><mxCell id="wfl9mlkw2SznRGfdiI2x-119" value="" style="edgeStyle=none;html=1;endArrow=none;endFill=0;" edge="1" parent="1" source="wfl9mlkw2SznRGfdiI2x-122"><mxGeometry relative="1" as="geometry"><mxPoint x="16.35633750205101" y="527.7902756218841" as="targetPoint"/></mxGeometry></mxCell><mxCell id="wfl9mlkw2SznRGfdiI2x-120" style="edgeStyle=none;html=1;exitX=0.5;exitY=1;exitDx=0;exitDy=0;entryX=0.5;entryY=0;entryDx=0;entryDy=0;endArrow=none;endFill=0;" edge="1" parent="1" source="wfl9mlkw2SznRGfdiI2x-122" target="wfl9mlkw2SznRGfdiI2x-127"><mxGeometry relative="1" as="geometry"/></mxCell><mxCell id="wfl9mlkw2SznRGfdiI2x-121" style="edgeStyle=none;html=1;exitX=1;exitY=1;exitDx=0;exitDy=0;entryX=0.5;entryY=0;entryDx=0;entryDy=0;endArrow=none;endFill=0;" edge="1" parent="1" source="wfl9mlkw2SznRGfdiI2x-122" target="wfl9mlkw2SznRGfdiI2x-128"><mxGeometry relative="1" as="geometry"/></mxCell><mxCell id="wfl9mlkw2SznRGfdiI2x-122" value="تاریخ اتمام عضویت" style="ellipse;whiteSpace=wrap;html=1;align=center;rotation=30;fillColor=#0050ef;strokeWidth=2;strokeColor=#33FFFF;" vertex="1" parent="1"><mxGeometry x="22.99" y="497.5" width="70" height="35.33" as="geometry"/></mxCell><mxCell id="wfl9mlkw2SznRGfdiI2x-123" style="edgeStyle=none;html=1;exitX=0;exitY=1;exitDx=0;exitDy=0;entryX=0.5;entryY=0;entryDx=0;entryDy=0;endArrow=none;endFill=0;" edge="1" parent="1" source="wfl9mlkw2SznRGfdiI2x-126" target="wfl9mlkw2SznRGfdiI2x-129"><mxGeometry relative="1" as="geometry"/></mxCell><mxCell id="wfl9mlkw2SznRGfdiI2x-124" style="edgeStyle=none;html=1;exitX=0.5;exitY=1;exitDx=0;exitDy=0;entryX=0.5;entryY=0;entryDx=0;entryDy=0;endArrow=none;endFill=0;" edge="1" parent="1" source="wfl9mlkw2SznRGfdiI2x-126" target="wfl9mlkw2SznRGfdiI2x-131"><mxGeometry relative="1" as="geometry"/></mxCell><mxCell id="wfl9mlkw2SznRGfdiI2x-125" style="edgeStyle=none;html=1;exitX=1;exitY=1;exitDx=0;exitDy=0;entryX=0;entryY=0;entryDx=0;entryDy=0;endArrow=none;endFill=0;" edge="1" parent="1" source="wfl9mlkw2SznRGfdiI2x-126" target="wfl9mlkw2SznRGfdiI2x-130"><mxGeometry relative="1" as="geometry"/></mxCell><mxCell id="wfl9mlkw2SznRGfdiI2x-126" value="شروع عضویت" style="ellipse;whiteSpace=wrap;html=1;align=center;rotation=-25;fillColor=#0050ef;strokeWidth=2;strokeColor=#33FFFF;" vertex="1" parent="1"><mxGeometry x="92.99" y="497.5" width="70" height="30" as="geometry"/></mxCell><mxCell id="wfl9mlkw2SznRGfdiI2x-127" value="ماه" style="ellipse;whiteSpace=wrap;html=1;rotation=30;fillColor=#0050ef;strokeWidth=2;strokeColor=#33FFFF;" vertex="1" parent="1"><mxGeometry x="12.989999999999998" y="555" width="35" height="22.5" as="geometry"/></mxCell><mxCell id="wfl9mlkw2SznRGfdiI2x-128" value="روز" style="ellipse;whiteSpace=wrap;html=1;rotation=15;fillColor=#0050ef;strokeWidth=2;strokeColor=#33FFFF;" vertex="1" parent="1"><mxGeometry x="47.989999999999995" y="577.5" width="35" height="22.5" as="geometry"/></mxCell><mxCell id="wfl9mlkw2SznRGfdiI2x-129" value="سال" style="ellipse;whiteSpace=wrap;html=1;fillColor=#0050ef;strokeWidth=2;strokeColor=#33FFFF;" vertex="1" parent="1"><mxGeometry x="102.99" y="567.5" width="35" height="22.5" as="geometry"/></mxCell><mxCell id="wfl9mlkw2SznRGfdiI2x-130" value="روز" style="ellipse;whiteSpace=wrap;html=1;rotation=-20;fillColor=#0050ef;strokeWidth=2;strokeColor=#33FFFF;" vertex="1" parent="1"><mxGeometry x="177.99" y="532.5" width="35" height="22.5" as="geometry"/></mxCell><mxCell id="wfl9mlkw2SznRGfdiI2x-131" value="ماه" style="ellipse;whiteSpace=wrap;html=1;rotation=-15;fillColor=#0050ef;strokeWidth=2;strokeColor=#33FFFF;" vertex="1" parent="1"><mxGeometry x="142.99" y="555" width="35" height="22.5" as="geometry"/></mxCell><mxCell id="wfl9mlkw2SznRGfdiI2x-132" style="edgeStyle=none;html=1;exitX=0.5;exitY=1;exitDx=0;exitDy=0;endArrow=none;endFill=0;" edge="1" parent="1" source="wfl9mlkw2SznRGfdiI2x-134" target="wfl9mlkw2SznRGfdiI2x-122"><mxGeometry relative="1" as="geometry"/></mxCell><mxCell id="wfl9mlkw2SznRGfdiI2x-133" style="edgeStyle=none;html=1;exitX=1;exitY=1;exitDx=0;exitDy=0;entryX=0.5;entryY=0;entryDx=0;entryDy=0;endArrow=none;endFill=0;" edge="1" parent="1" source="wfl9mlkw2SznRGfdiI2x-134" target="wfl9mlkw2SznRGfdiI2x-126"><mxGeometry relative="1" as="geometry"/></mxCell><mxCell id="wfl9mlkw2SznRGfdiI2x-134" value="از تاریخ_تا تاریخ" style="ellipse;shape=doubleEllipse;margin=3;whiteSpace=wrap;html=1;align=center;fillColor=#0050ef;strokeWidth=2;strokeColor=#33FFFF;" vertex="1" parent="1"><mxGeometry x="29.999999999999993" y="440" width="80" height="40" as="geometry"/></mxCell><mxCell id="wfl9mlkw2SznRGfdiI2x-136" value="سال" style="ellipse;whiteSpace=wrap;html=1;rotation=30;fillColor=#0050ef;strokeWidth=2;strokeColor=#33FFFF;" vertex="1" parent="1"><mxGeometry x="-7.5" y="527" width="35" height="22.5" as="geometry"/></mxCell><mxCell id="wfl9mlkw2SznRGfdiI2x-137" value="M" style="text;html=1;align=center;verticalAlign=middle;resizable=0;points=[];autosize=1;strokeColor=none;fillColor=none;" vertex="1" parent="1"><mxGeometry x="115" y="375" width="30" height="30" as="geometry"/></mxCell><mxCell id="wfl9mlkw2SznRGfdiI2x-138" value="N" style="text;html=1;align=center;verticalAlign=middle;resizable=0;points=[];autosize=1;strokeColor=none;fillColor=none;" vertex="1" parent="1"><mxGeometry x="-65" y="375" width="30" height="30" as="geometry"/></mxCell><mxCell id="wfl9mlkw2SznRGfdiI2x-139" value="&lt;font style=&quot;font-size: 22px;&quot;&gt;مریم رضوانی&lt;br&gt;شماره دانشجویی 9921160019&lt;br&gt;&amp;nbsp;کتابخانهERنمودار&lt;/font&gt;" style="text;html=1;align=center;verticalAlign=middle;resizable=0;points=[];autosize=1;strokeColor=none;fillColor=none;" vertex="1" parent="1"><mxGeometry x="205" y="-175" width="270" height="90" as="geometry"/></mxCell></root></mxGraphModel></diagram><diagram id="TFUXXBdZ36rfha4TXdwL" name="Page-2"><mxGraphModel dx="1002" dy="428" grid="1" gridSize="10" guides="1" tooltips="1" connect="1" arrows="1" fold="1" page="1" pageScale="1" pageWidth="850" pageHeight="1100" math="0" shadow="0"><root><mxCell id="0"/><mxCell id="1" parent="0"/></root></mxGraphModel></diagram></mxfile>